<mxfile host="65bd71144e">
    <diagram id="NHPrIWaVgSc8Tz5jfs60" name="Page-1">
        <mxGraphModel dx="635" dy="342" grid="1" gridSize="10" guides="1" tooltips="1" connect="1" arrows="1" fold="1" page="1" pageScale="1" pageWidth="850" pageHeight="1100" math="0" shadow="0">
            <root>
                <mxCell id="0"/>
                <mxCell id="1" parent="0"/>
                <mxCell id="2" value="User Starts Application" style="rounded=1;whiteSpace=wrap;html=1;fillColor=#b3e2cd;strokeColor=#36393d;" parent="1" vertex="1">
                    <mxGeometry x="320" y="40" width="160" height="60" as="geometry"/>
                </mxCell>
                <mxCell id="3" value="User Logs In / Registers" style="rounded=1;whiteSpace=wrap;html=1;fillColor=#b3e2cd;strokeColor=#36393d;" parent="1" vertex="1">
                    <mxGeometry x="320" y="140" width="160" height="60" as="geometry"/>
                </mxCell>
                <mxCell id="4" value="User Inputs Trip Preferences (Destination, Dates, Interests, Budget, Style)" style="rounded=1;whiteSpace=wrap;html=1;fillColor=#b3e2cd;strokeColor=#36393d;" parent="1" vertex="1">
                    <mxGeometry x="320" y="240" width="160" height="100" as="geometry"/>
                </mxCell>
                <mxCell id="5" value="System: Sends Preferences &amp; User Profile to GenAI Service" style="ellipse;whiteSpace=wrap;html=1;fillColor=#fdcdac;strokeColor=#36393d;" parent="1" vertex="1">
                    <mxGeometry x="590" y="230" width="140" height="120" as="geometry"/>
                </mxCell>
                <mxCell id="6" value="GenAI Service: Performs RAG on Travel VectorDB (using preferences)" style="ellipse;whiteSpace=wrap;html=1;fillColor=#fdcdac;strokeColor=#36393d;" parent="1" vertex="1">
                    <mxGeometry x="320" y="380" width="160" height="80" as="geometry"/>
                </mxCell>
                <mxCell id="7" value="GenAI Service: Generates Draft Itinerary" style="ellipse;whiteSpace=wrap;html=1;fillColor=#fdcdac;strokeColor=#36393d;" parent="1" vertex="1">
                    <mxGeometry x="320" y="500" width="160" height="80" as="geometry"/>
                </mxCell>
                <mxCell id="8" value="System: Displays Draft Itinerary to User (with details &amp; map)" style="rounded=1;whiteSpace=wrap;html=1;fillColor=#b3e2cd;strokeColor=#36393d;" parent="1" vertex="1">
                    <mxGeometry x="320" y="620" width="160" height="80" as="geometry"/>
                </mxCell>
                <mxCell id="9" value="User Reviews &amp; Optionally Modifies Itinerary (Add/Remove/Reorder, Request Alternatives)" style="rounded=1;whiteSpace=wrap;html=1;fillColor=#b3e2cd;strokeColor=#36393d;" parent="1" vertex="1">
                    <mxGeometry x="320" y="740" width="160" height="100" as="geometry"/>
                </mxCell>
                <mxCell id="10" value="User Saves / Exports Final Itinerary" style="rounded=1;whiteSpace=wrap;html=1;fillColor=#b3e2cd;strokeColor=#36393d;" parent="1" vertex="1">
                    <mxGeometry x="320" y="880" width="160" height="60" as="geometry"/>
                </mxCell>
                <mxCell id="11" value="System: Stores Final Itinerary (DB)" style="ellipse;whiteSpace=wrap;html=1;fillColor=#fdcdac;strokeColor=#36393d;" parent="1" vertex="1">
                    <mxGeometry x="520" y="870" width="140" height="80" as="geometry"/>
                </mxCell>
                <mxCell id="12" value="" style="endArrow=classic;html=1;rounded=0;" parent="1" source="2" target="3" edge="1">
                    <mxGeometry width="50" height="50" relative="1" as="geometry">
                        <mxPoint x="400" y="120" as="sourcePoint"/>
                        <mxPoint x="400" y="120" as="targetPoint"/>
                    </mxGeometry>
                </mxCell>
                <mxCell id="13" value="" style="endArrow=classic;html=1;rounded=0;" parent="1" source="3" target="4" edge="1">
                    <mxGeometry width="50" height="50" relative="1" as="geometry">
                        <mxPoint x="400" y="220" as="sourcePoint"/>
                        <mxPoint x="400" y="220" as="targetPoint"/>
                    </mxGeometry>
                </mxCell>
                <mxCell id="14" value="Preferences" style="endArrow=classic;html=1;rounded=0;exitX=1;exitY=0.5;exitDx=0;exitDy=0;entryX=0;entryY=0.5;entryDx=0;entryDy=0;" parent="1" source="4" target="5" edge="1">
                    <mxGeometry width="50" height="50" relative="1" as="geometry">
                        <mxPoint x="490" y="290" as="sourcePoint"/>
                        <mxPoint x="510" y="290" as="targetPoint"/>
                    </mxGeometry>
                </mxCell>
                <mxCell id="15" value="Contextualized Query" style="endArrow=classic;html=1;rounded=0;exitX=0.5;exitY=1;exitDx=0;exitDy=0;entryX=0.5;entryY=0;entryDx=0;entryDy=0;" parent="1" source="5" target="6" edge="1">
                    <mxGeometry width="50" height="50" relative="1" as="geometry">
                        <mxPoint x="590" y="360" as="sourcePoint"/>
                        <mxPoint x="400" y="360" as="targetPoint"/>
                        <Array as="points">
                            <mxPoint x="590" y="360"/>
                            <mxPoint x="400" y="360"/>
                        </Array>
                    </mxGeometry>
                </mxCell>
                <mxCell id="16" value="" style="endArrow=classic;html=1;rounded=0;" parent="1" source="6" target="7" edge="1">
                    <mxGeometry width="50" height="50" relative="1" as="geometry">
                        <mxPoint x="400" y="470" as="sourcePoint"/>
                        <mxPoint x="400" y="470" as="targetPoint"/>
                    </mxGeometry>
                </mxCell>
                <mxCell id="17" value="Draft Itinerary" style="endArrow=classic;html=1;rounded=0;" parent="1" source="7" target="8" edge="1">
                    <mxGeometry width="50" height="50" relative="1" as="geometry">
                        <mxPoint x="400" y="600" as="sourcePoint"/>
                        <mxPoint x="400" y="600" as="targetPoint"/>
                    </mxGeometry>
                </mxCell>
                <mxCell id="18" value="" style="endArrow=classic;html=1;rounded=0;" parent="1" source="8" target="9" edge="1">
                    <mxGeometry width="50" height="50" relative="1" as="geometry">
                        <mxPoint x="400" y="710" as="sourcePoint"/>
                        <mxPoint x="400" y="710" as="targetPoint"/>
                    </mxGeometry>
                </mxCell>
                <mxCell id="19" value="Modification Loop (Optional)" style="endArrow=classic;html=1;rounded=0;entryX=1;entryY=0.5;entryDx=0;exitX=1;exitY=0;exitDx=0;" parent="1" source="9" target="5" edge="1">
                    <mxGeometry width="50" height="50" relative="1" as="geometry">
                        <mxPoint x="490" y="790" as="sourcePoint"/>
                        <mxPoint x="680" y="500" as="targetPoint"/>
                        <Array as="points">
                            <mxPoint x="680" y="790"/>
                            <mxPoint x="730" y="390"/>
                        </Array>
                    </mxGeometry>
                </mxCell>
                <mxCell id="20" value="" style="endArrow=classic;html=1;rounded=0;" parent="1" source="9" target="10" edge="1">
                    <mxGeometry width="50" height="50" relative="1" as="geometry">
                        <mxPoint x="400" y="850" as="sourcePoint"/>
                        <mxPoint x="400" y="850" as="targetPoint"/>
                    </mxGeometry>
                </mxCell>
                <mxCell id="21" value="Save Action" style="endArrow=classic;html=1;rounded=0;exitX=1;exitY=0.5;exitDx=0;entryX=0;entryY=0.5;entryDx=0;" parent="1" source="10" target="11" edge="1">
                    <mxGeometry width="50" height="50" relative="1" as="geometry">
                        <mxPoint x="490" y="910" as="sourcePoint"/>
                        <mxPoint x="510" y="910" as="targetPoint"/>
                    </mxGeometry>
                </mxCell>
            </root>
        </mxGraphModel>
    </diagram>
</mxfile>